# xmcd
# Copyright (C) 1995-1998 Ti Kan
#
# Track frame offsets:
#       150
#       15166
#       23688
#       44325
#
# Disc length: 774 seconds
#
# Revision: 0
# Processed by: cddbd v1.5.2PL0 Copyright (c) Steve Scherf et al.
# Submitted via: CD-Import v1.0
#
DISCID=1e030404
DTITLE=Christa - 
DYEAR=13
DGENRE=
TTITLE0=Snow White (Alive)
TTITLE1=Promenade
TTITLE2=Neverlight
TTITLE3=1000
EXTD=
EXTT0=
EXTT1=
EXTT2=
EXTT3=
PLAYORDER=
